<?xml version="1.0"?>
<svg xmlns:rdf="http://www.w3.org/1999/02/22-rdf-syntax-ns#" xmlns="http://www.w3.org/2000/svg" xmlns:cc="http://web.resource.org/cc/" xmlns:xlink="http://www.w3.org/1999/xlink" xmlns:dc="http://purl.org/dc/elements/1.1/" id="svg1" height="325pt" width="325pt">
 <defs id="defs3">
  <linearGradient id="linearGradient1697">
   <stop id="stop1698" stop-color="#db210e" offset="0"/>
   <stop id="stop1699" stop-color="#761107" offset="1"/>
  </linearGradient>
  <linearGradient id="linearGradient1076" y2="466.28" xlink:href="#linearGradient1697" gradientUnits="userSpaceOnUse" x2="520.57" y1="506.29" x1="520.57"/>
  <linearGradient id="linearGradient1077" y2="505.08" xlink:href="#linearGradient1697" gradientUnits="userSpaceOnUse" x2="522.94" y1="469.5" x1="522.94"/>
  <linearGradient id="linearGradient1078" y2="463.47" gradientUnits="userSpaceOnUse" y1="183.48" gradientTransform="matrix(1.5539 0 0 .64354 -1.0179 2.8422e-14)" x2="214.59" x1="213.83">
   <stop id="stop1703" stop-color="#fff" stop-opacity=".69072" offset="0"/>
   <stop id="stop1704" stop-color="#fff" stop-opacity="0" offset="1"/>
  </linearGradient>
 </defs>
 <g id="layer1">
  <path id="path1070" stroke-linejoin="round" d="m544.07 487.06a20.784 20.784 0 1 1 -41.57 0 20.784 20.784 0 1 1 41.57 0z" transform="matrix(9.1612 0 0 9.1612 -4590.9 -4258.7)" stroke="url(#linearGradient1077)" stroke-linecap="round" stroke-width="1.3645" fill="url(#linearGradient1076)"/>
  <path id="path1713" opacity=".9" d="m471.57 246.89c44.37-0.97-12.4-123.16-135.68-123.81-134.56-0.68-162.09 110.96-140.72 113 0 0 36.87 5.06 71.94 14.86 56.47 15.93 125.55-13.07 152.77-17.29 30.34-4.69 47.37 15.4 51.69 13.24z" fill-rule="evenodd" transform="translate(-130.29 -93.649)" fill="url(#linearGradient1078)"/>
 </g>
 <metadata>
  <rdf:RDF>
   <cc:Work>
    <dc:format>image/svg+xml</dc:format>
    <dc:type rdf:resource="http://purl.org/dc/dcmitype/StillImage"/>
    <cc:license rdf:resource="http://creativecommons.org/licenses/publicdomain/"/>
    <dc:publisher>
     <cc:Agent rdf:about="http://openclipart.org/">
      <dc:title>Openclipart</dc:title>
     </cc:Agent>
    </dc:publisher>
   </cc:Work>
   <cc:License rdf:about="http://creativecommons.org/licenses/publicdomain/">
    <cc:permits rdf:resource="http://creativecommons.org/ns#Reproduction"/>
    <cc:permits rdf:resource="http://creativecommons.org/ns#Distribution"/>
    <cc:permits rdf:resource="http://creativecommons.org/ns#DerivativeWorks"/>
   </cc:License>
  </rdf:RDF>
 </metadata>
</svg>
